<?xml version="1.0" encoding="utf-8"?>
<!-- Generator: Adobe Illustrator 21.1.0, SVG Export Plug-In . SVG Version: 6.00 Build 0)  -->
<svg version="1.1" xmlns="http://www.w3.org/2000/svg" xmlns:xlink="http://www.w3.org/1999/xlink" x="0px" y="0px"
	 viewBox="0 0 400 400" style="enable-background:new 0 0 400 400;" xml:space="preserve">
<style type="text/css">
	.st0{display:none;}
	.st1{display:inline;fill:none;stroke:#333333;stroke-miterlimit:10;}
	.st2{fill:#333333;}
</style>
<g id="Capa_1" class="st0">
	<rect x="16" y="16" class="st1" width="368" height="368"/>
</g>
<g id="Capa_2">
	<path class="st2" d="M204.1,165.1c-40.8,0-74-33.2-74-74s33.2-74,74-74s74,33.2,74,74S244.9,165.1,204.1,165.1z M204.1,21.9
		c-38.1,0-69.1,31-69.1,69.1s31,69.1,69.1,69.1c38.1,0,69.1-31,69.1-69.1S242.2,21.9,204.1,21.9z"/>
	<path class="st2" d="M314.5,383H85.8c-33.9,0-61.5-27.6-61.5-61.5c0-69.2,56.3-125.6,125.6-125.6h100.5
		c69.2,0,125.6,56.3,125.6,125.6C376,355.4,348.4,383,314.5,383z M149.9,200.8c-66.6,0-120.7,54.1-120.7,120.7
		c0,31.2,25.4,56.6,56.6,56.6h228.7c31.2,0,56.6-25.4,56.6-56.6c0-66.6-54.1-120.7-120.7-120.7H149.9z"/>
	<path class="st2" d="M204.1,249.7c-13.6,0-24.6-11-24.6-24.6c0-13.6,11-24.6,24.6-24.6s24.6,11,24.6,24.6
		C228.7,238.7,217.6,249.7,204.1,249.7z M204.1,205.3c-10.9,0-19.7,8.9-19.7,19.7c0,10.9,8.9,19.7,19.7,19.7
		c10.9,0,19.7-8.9,19.7-19.7C223.8,214.2,214.9,205.3,204.1,205.3z"/>
	<path class="st2" d="M252,383h-95.9l23.7-157.3h4.2l0.5,2c1.6,9.6,9.7,16.6,19.5,16.6c9.7,0,17.9-7,19.5-16.6l0.3-2h4.2l0.5,2.1
		L252,383z M161.8,378.1h84.5l-21.2-140.7c-4.3,7.2-12.2,11.8-21,11.8c-8.8,0-16.7-4.6-21-11.8L161.8,378.1z"/>
</g>
</svg>
