<?xml version="1.0" encoding="utf-8"?>
<!-- Generator: Adobe Illustrator 21.1.0, SVG Export Plug-In . SVG Version: 6.00 Build 0)  -->
<svg version="1.1" xmlns="http://www.w3.org/2000/svg" xmlns:xlink="http://www.w3.org/1999/xlink" x="0px" y="0px"
	 viewBox="0 0 400 400" style="enable-background:new 0 0 400 400;" xml:space="preserve">
<style type="text/css">
	.st0{display:none;}
	.st1{display:inline;fill:none;stroke:#333333;stroke-miterlimit:10;}
	.st2{fill:#333333;}
</style>
<g id="Capa_1" class="st0">
	<rect x="16" y="16" class="st1" width="368" height="368"/>
</g>
<g id="Capa_2">
	<g>
		<g>
			<path class="st2" d="M192.2,192.3c-0.2,0-0.4,0-0.5,0c-25.9-0.3-46.8-21.6-46.5-47.6c0.3-25.7,21.3-46.5,47-46.5
				c0.2,0,0.4,0,0.5,0c12.6,0.1,24.3,5.2,33.1,14.2c8.8,9,13.5,20.9,13.4,33.4C238.9,171.6,217.9,192.3,192.2,192.3z M192.2,103.1
				c-23,0-41.9,18.6-42.2,41.7c-0.3,23.3,18.4,42.4,41.7,42.7c0.2,0,0.3,0,0.5,0c23,0,41.9-18.6,42.2-41.7c0.1-11.3-4.1-21.9-12-30
				c-7.9-8.1-18.4-12.6-29.7-12.7C192.5,103.1,192.3,103.1,192.2,103.1z"/>
			<path class="st2" d="M258.8,321.5c-0.2,0-0.3,0-0.5,0l-142.5-1.6c-10.5-0.1-20.3-4.3-27.6-11.8c-7.3-7.5-11.3-17.4-11.2-27.9
				c0.5-43.7,36.3-78.8,80.1-78.3l62.7,0.7c43.7,0.5,78.8,36.4,78.3,80.1c-0.1,10.5-4.3,20.3-11.8,27.6
				C278.9,317.6,269.2,321.5,258.8,321.5z M156.2,206.8c-40.6,0-73.8,32.8-74.3,73.5c-0.1,9.2,3.4,17.9,9.8,24.4
				c6.4,6.6,15,10.2,24.2,10.4l142.5,1.6c9.2,0.1,17.9-3.4,24.4-9.8s10.2-15,10.4-24.2c0.2-19.8-7.3-38.6-21.2-52.8
				c-13.9-14.2-32.5-22.1-52.3-22.4l-62.7-0.7C156.8,206.8,156.5,206.8,156.2,206.8z"/>
			<path class="st2" d="M190.7,237.7c-0.1,0-0.1,0-0.2,0c-4.3,0-8.4-1.8-11.4-4.9c-3-3.1-4.7-7.2-4.6-11.6c0-4.3,1.8-8.4,4.9-11.4
				c3.1-3,7.3-4.6,11.6-4.6c9,0.1,16.2,7.5,16.1,16.4v0C206.8,230.5,199.6,237.7,190.7,237.7z M190.7,210c-3,0-5.8,1.1-8,3.2
				c-2.2,2.1-3.4,5-3.4,8c0,3,1.1,5.9,3.2,8.1c2.1,2.2,5,3.4,8,3.4c0,0,0.1,0,0.1,0c6.2,0,11.3-5,11.4-11.3l0,0
				c0.1-6.3-5-11.5-11.3-11.5C190.8,210,190.7,210,190.7,210z"/>
			<path class="st2" d="M220.5,321.1l-61.9-0.7l16.2-99.7h4.2l0.4,2.1c0.8,5.5,5.5,9.6,11.1,9.7c5.7-0.1,10.4-3.9,11.3-9.4l0.4-2
				h4.2l0.4,2.1L220.5,321.1z M164.3,315.6l50.6,0.6l-11.8-84.6c-3,3.6-7.5,5.7-12.4,5.7c-0.1,0-0.1,0-0.2,0c-5-0.1-9.5-2.4-12.5-6
				L164.3,315.6z"/>
		</g>
		<path class="st2" d="M188.3,384c-0.6,0-1.3,0-1.9,0c-89.7-1-161.8-74.8-160.7-164.4c1-89,73.8-160.7,162.6-160.7
			c0.6,0,1.3,0,1.9,0c89.7,1,161.8,74.8,160.7,164.4l-2.4,0l2.4,0C349.8,312.3,277.1,384,188.3,384z M188.2,63.7
			c-86.1,0-156.7,69.6-157.7,155.9c-1,87,69,158.5,155.9,159.5c0.6,0,1.2,0,1.8,0c86.1,0,156.7-69.6,157.7-155.9
			c1-87-69-158.5-155.9-159.5C189.5,63.7,188.8,63.7,188.2,63.7z"/>
		<path class="st2" d="M369.5,228.3C369.5,228.3,369.4,228.3,369.5,228.3l-42.2-0.5c-2.7,0-4.8-2.2-4.8-4.9c0-2.7,2.2-4.9,4.9-4.8
			l42.1,0.5c2.7,0,4.8,2.2,4.8,4.9C374.3,226.2,372.1,228.3,369.5,228.3z"/>
		<path class="st2" d="M189.9,85.7C189.8,85.7,189.8,85.7,189.9,85.7c-2.7,0-4.9-2.2-4.9-4.9l0.4-33.8c0-2.7,2.1-5,4.9-4.8
			c2.7,0,4.8,2.2,4.8,4.9l-0.4,33.8C194.7,83.5,192.5,85.7,189.9,85.7z"/>
		<path class="st2" d="M211.5,35.9c0,0-0.1,0-0.1,0l-42.1-0.5c-5.4-0.1-9.7-4.5-9.6-9.8s4.5-9.7,9.8-9.6l42.1,0.5
			c5.4,0.1,9.7,4.5,9.6,9.8C221.2,31.6,216.9,35.9,211.5,35.9z"/>
	</g>
</g>
</svg>
