<?xml version="1.0" encoding="utf-8"?>
<!-- Generator: Adobe Illustrator 21.1.0, SVG Export Plug-In . SVG Version: 6.00 Build 0)  -->
<svg version="1.1" xmlns="http://www.w3.org/2000/svg" xmlns:xlink="http://www.w3.org/1999/xlink" x="0px" y="0px"
	 viewBox="0 0 400 400" style="enable-background:new 0 0 400 400;" xml:space="preserve">
<style type="text/css">
	.st0{display:none;}
	.st1{display:inline;fill:none;stroke:#333333;stroke-miterlimit:10;}
	.st2{fill:#333333;}
</style>
<g id="Capa_1" class="st0">
	<rect x="16" y="16" class="st1" width="368" height="368"/>
</g>
<g id="Capa_2">
	<g>
		<path class="st2" d="M309,384H91c-32.4,0-58.8-26.4-58.8-58.8c0-66.1,53.8-119.8,119.8-119.8h95.8c66.1,0,119.8,53.8,119.8,119.8
			C367.7,357.6,341.4,384,309,384z M152.1,210.3c-63.3,0-114.9,51.5-114.9,114.9c0,29.7,24.1,53.8,53.8,53.8H309
			c29.7,0,53.8-24.1,53.8-53.8c0-63.3-51.5-114.9-114.9-114.9H152.1z"/>
		<path class="st2" d="M203.7,257c-13,0-23.6-10.6-23.6-23.6c0-13,10.6-23.6,23.6-23.6s23.6,10.6,23.6,23.6
			C227.3,246.4,216.7,257,203.7,257z M203.7,214.7c-10.3,0-18.7,8.4-18.7,18.7s8.4,18.7,18.7,18.7c10.3,0,18.7-8.4,18.7-18.7
			S214,214.7,203.7,214.7z"/>
		<path class="st2" d="M249.6,384h-91.7l22.7-150.3h4.2l0.5,2.1c1.5,9.1,9.2,15.7,18.4,15.7c9.2,0,16.9-6.6,18.4-15.7l0.3-2.1h4.2
			l0.5,2.1L249.6,384z M163.6,379h80.2l-20.2-133.5c-4.2,6.7-11.6,10.9-19.9,10.9c-8.3,0-15.7-4.3-19.9-10.9L163.6,379z"/>
		<g>
			<path class="st2" d="M203.9,116.3c-32.2,0-61.2-5.8-77.6-15.5l-7.8-4.6h170.7l-7.8,4.6C265.1,110.5,236.1,116.3,203.9,116.3z
				 M138.5,101.1c16.3,6.4,40.1,10.2,65.4,10.2c25.3,0,49.2-3.8,65.4-10.2H138.5z"/>
			<g>
				<path class="st2" d="M186.3,101.1h-60.1v-2.5c0-34.8,23.4-65.5,56.9-74.8l3.1-0.9V101.1z M131.3,96.2h50.1V29.6
					C152.5,39,132.3,65.7,131.3,96.2z"/>
				<path class="st2" d="M281.6,101.1h-60.1V23l3.1,0.9c33.5,9.3,57,40,57,74.8V101.1z M226.4,96.2h50.1
					c-1-30.4-21.2-57.2-50.1-66.6V96.2z"/>
			</g>
			<path class="st2" d="M130.8,99h-20.6V67.2c0-2.5,2-4.5,4.6-4.5h11.5c2.5,0,4.5,2,4.5,4.5V99z M115.2,94h10.7V67.6h-10.7V94z"/>
			<path class="st2" d="M297.2,99h-20.6V67.2c0-2.5,2-4.5,4.5-4.5h11.5c2.5,0,4.5,2,4.5,4.5V99z M281.6,94h10.7V67.6h-10.7V94z"/>
			<path class="st2" d="M226.4,101.1h-45.1V23.4c0-4.3,3.5-7.8,7.8-7.8h29.5c4.3,0,7.8,3.5,7.8,7.8V101.1z M186.3,96.2h35.2V23.4
				c0-1.6-1.3-2.8-2.8-2.8h-29.5c-1.6,0-2.8,1.3-2.8,2.8V96.2z"/>
		</g>
		<g>
			<path class="st2" d="M203.7,186.7c-39,0-70.7-31.7-70.7-70.7c0-5.9,0.8-11.9,2.4-18l0.5-1.8h135.6L272,98c1.6,6,2.4,12.1,2.4,18
				C274.4,155,242.7,186.7,203.7,186.7z M139.8,101.1c-1.2,5-1.8,10-1.8,14.9c0,36.2,29.5,65.7,65.7,65.7s65.7-29.5,65.7-65.7
				c0-4.9-0.6-9.9-1.8-14.9H139.8z"/>
		</g>
	</g>
</g>
</svg>
