<?xml version="1.0" encoding="utf-8"?>
<!-- Generator: Adobe Illustrator 21.1.0, SVG Export Plug-In . SVG Version: 6.00 Build 0)  -->
<svg version="1.1" xmlns="http://www.w3.org/2000/svg" xmlns:xlink="http://www.w3.org/1999/xlink" x="0px" y="0px"
	 viewBox="0 0 400 400" style="enable-background:new 0 0 400 400;" xml:space="preserve">
<style type="text/css">
	.st0{display:none;}
	.st1{display:inline;fill:none;stroke:#333333;stroke-miterlimit:10;}
	.st2{fill:#333333;}
</style>
<g id="Capa_1" class="st0">
	<rect x="16" y="16" class="st1" width="368" height="368"/>
</g>
<g id="Capa_2">
	<g>
		<path class="st2" d="M200.2,384c-101.4,0-184-82.5-184-184s82.5-184,184-184c101.4,0,184,82.5,184,184S301.6,384,200.2,384z
			 M200.2,21C101.4,21,21.1,101.3,21.1,200s80.3,179.1,179.1,179.1c98.7,0,179.1-80.3,179.1-179.1S298.9,21,200.2,21z"/>
		<path class="st2" d="M200.2,220.2c-11.1,0-20.2-9-20.2-20.2s9-20.2,20.2-20.2s20.2,9,20.2,20.2S211.3,220.2,200.2,220.2z
			 M200.2,184.8c-8.4,0-15.2,6.8-15.2,15.2s6.8,15.2,15.2,15.2c8.4,0,15.2-6.8,15.2-15.2S208.6,184.8,200.2,184.8z"/>
		<rect x="197.7" y="29.6" class="st2" width="4.9" height="152.7"/>
		<rect x="217.9" y="197.4" class="st2" width="129.3" height="4.9"/>
	</g>
</g>
</svg>
